<svg xmlns="http://www.w3.org/2000/svg" width="10" height="10" viewBox="0 0 10 10">
  <g id="Gbni4w.tif" transform="translate(-1002.248 722.686)">
    <g id="Group_8" data-name="Group 8" transform="translate(1002.248 -722.686)">
      <path id="Path_16" data-name="Path 16" d="M1009.289-720.971a.5.5,0,0,0-.268-.027q-2.847,0-5.693,0c-.281,0-.281,0-.282-.283,0-.391,0-.782,0-1.173,0-.167.05-.231.224-.23q2.749.007,5.5,0c1.076,0,2.152.005,3.228,0,.2,0,.257.067.256.259q-.007,4.34,0,8.68c0,.2-.063.266-.259.26-.391-.011-.783,0-1.174-.006-.235,0-.255-.023-.255-.26q0-2.824,0-5.65c0-.052,0-.1,0-.156s.026-.138-.028-.163c-.072-.034-.108.053-.151.1q-3.377,3.371-6.752,6.745c-.047.046-.094.091-.139.137a.126.126,0,0,1-.213,0c-.293-.3-.593-.6-.889-.9-.19-.194-.189-.2.009-.393l3.348-3.346q1.7-1.7,3.4-3.4C1009.2-720.842,1009.276-720.881,1009.289-720.971Z" transform="translate(-1002.248 722.686)" fill="#818386"/>
    </g>
  </g>
</svg>
