<svg 
xmlns="http://www.w3.org/2000/svg" 
>
<defs>

<symbol id="icon-instagram" viewBox="0 0 24 24">
<title>Instagram</title>
<path d="M12 0C8.74 0 8.333.015 7.053.072 5.775.132 4.905.333 4.14.63c-.789.306-1.459.717-2.126 1.384S.935 3.35.63 4.14C.333 4.905.131 5.775.072 7.053.012 8.333 0 8.74 0 12s.015 3.667.072 4.947c.06 1.277.261 2.148.558 2.913.306.788.717 1.459 1.384 2.126.667.666 1.336 1.079 2.126 1.384.766.296 1.636.499 2.913.558C8.333 23.988 8.74 24 12 24s3.667-.015 4.947-.072c1.277-.06 2.148-.262 2.913-.558.788-.306 1.459-.718 2.126-1.384.666-.667 1.079-1.335 1.384-2.126.296-.765.499-1.636.558-2.913.06-1.28.072-1.687.072-4.947s-.015-3.667-.072-4.947c-.06-1.277-.262-2.149-.558-2.913-.306-.789-.718-1.459-1.384-2.126C21.319 1.347 20.651.935 19.86.63c-.765-.297-1.636-.499-2.913-.558C15.667.012 15.26 0 12 0zm0 2.16c3.203 0 3.585.016 4.85.071 1.17.055 1.805.249 2.227.415.562.217.96.477 1.382.896.419.42.679.819.896 1.381.164.422.36 1.057.413 2.227.057 1.266.07 1.646.07 4.85s-.015 3.585-.074 4.85c-.061 1.17-.256 1.805-.421 2.227-.224.562-.479.96-.899 1.382-.419.419-.824.679-1.38.896-.42.164-1.065.36-2.235.413-1.274.057-1.649.07-4.859.07-3.211 0-3.586-.015-4.859-.074-1.171-.061-1.816-.256-2.236-.421-.569-.224-.96-.479-1.379-.899-.421-.419-.69-.824-.9-1.38-.165-.42-.359-1.065-.42-2.235-.045-1.26-.061-1.649-.061-4.844 0-3.196.016-3.586.061-4.861.061-1.17.255-1.814.42-2.234.21-.57.479-.96.9-1.381.419-.419.81-.689 1.379-.898.42-.166 1.051-.361 2.221-.421 1.275-.045 1.65-.06 4.859-.06l.045.03zm0 3.678c-3.405 0-6.162 2.76-6.162 6.162 0 3.405 2.76 6.162 6.162 6.162 3.405 0 6.162-2.76 6.162-6.162 0-3.405-2.76-6.162-6.162-6.162zM12 16c-2.21 0-4-1.79-4-4s1.79-4 4-4 4 1.79 4 4-1.79 4-4 4zm7.846-10.405c0 .795-.646 1.44-1.44 1.44-.795 0-1.44-.646-1.44-1.44 0-.794.646-1.439 1.44-1.439.793-.001 1.44.645 1.44 1.439z"/>
</symbol>

<symbol id="icon-facebook" viewBox="0 0 24 24">
<title>Facebook</title>
<path d="M24 12.073c0-6.627-5.373-12-12-12s-12 5.373-12 12c0 5.99 4.388 10.954 10.125 11.854v-8.385H7.078v-3.47h3.047V9.43c0-3.007 1.792-4.669 4.533-4.669 1.312 0 2.686.235 2.686.235v2.953H15.83c-1.491 0-1.956.925-1.956 1.874v2.25h3.328l-.532 3.47h-2.796v8.385C19.612 23.027 24 18.062 24 12.073z"/>
</symbol>

<symbol id="icon-youTube" viewBox="0 0 24 24">
<title>YouTube</title>
<path d="M23.498 6.186a3.016 3.016 0 0 0-2.122-2.136C19.505 3.545 12 3.545 12 3.545s-7.505 0-9.377.505A3.017 3.017 0 0 0 .502 6.186C0 8.07 0 12 0 12s0 3.93.502 5.814a3.016 3.016 0 0 0 2.122 2.136c1.871.505 9.376.505 9.376.505s7.505 0 9.377-.505a3.015 3.015 0 0 0 2.122-2.136C24 15.93 24 12 24 12s0-3.93-.502-5.814zM9.545 15.568V8.432L15.818 12l-6.273 3.568z"/>
</symbol>

<symbol id="icon-vimeo" viewBox="0 0 24 24">
<title>Vimeo</title>
<path d="M23.9765 6.4168c-.105 2.338-1.739 5.5429-4.894 9.6088-3.2679 4.247-6.0258 6.3699-8.2898 6.3699-1.409 0-2.578-1.294-3.553-3.881l-1.9179-7.1138c-.719-2.584-1.488-3.878-2.312-3.878-.179 0-.806.378-1.8809 1.132l-1.129-1.457a315.06 315.06 0 003.501-3.1279c1.579-1.368 2.765-2.085 3.5539-2.159 1.867-.18 3.016 1.1 3.447 3.838.465 2.953.789 4.789.971 5.5069.5389 2.45 1.1309 3.674 1.7759 3.674.502 0 1.256-.796 2.265-2.385 1.004-1.589 1.54-2.797 1.612-3.628.144-1.371-.395-2.061-1.614-2.061-.574 0-1.167.121-1.777.391 1.186-3.8679 3.434-5.7568 6.7619-5.6368 2.4729.06 3.6279 1.664 3.4929 4.7969z"/>
</symbol>

<symbol id="icon-menu_open" viewBox="0 0 24 24">
<title>menu_open</title>
<path d="M4,18h16c0.55,0,1-0.45,1-1l0,0c0-0.55-0.45-1-1-1H4c-0.55,0-1,0.45-1,1l0,0C3,17.55,3.45,18,4,18z M4,13h16 c0.55,0,1-0.45,1-1l0,0c0-0.55-0.45-1-1-1H4c-0.55,0-1,0.45-1,1l0,0C3,12.55,3.45,13,4,13z M3,7L3,7c0,0.55,0.45,1,1,1h16 c0.55,0,1-0.45,1-1l0,0c0-0.55-0.45-1-1-1H4C3.45,6,3,6.45,3,7z"/>
</symbol>

<symbol id="icon-man" x="0px" y="0px"
	 viewBox="0 0 192 203.3">
<title>man</title>
<path id="Path_22" class="st0" d="M186.6,40.7c-29.7,7-60.1,10.4-90.7,10.2c-30.5,0.3-61-3.1-90.7-10.2L0,61
	c21,5.1,42.4,8.5,64,10.2v132.1h21.3v-61h21.3v61H128V71.2c21.6-1.6,43-5,64-10.2L186.6,40.7z M96,40.7c11.5,0.2,21-8.8,21.3-20.3
	C116.8,8.6,106.8-0.5,95,0C84,0.5,75.2,9.4,74.7,20.4C75,31.9,84.5,40.9,96,40.7z"/>
</symbol>

<symbol id="icon-play" x='0' y='0' viewBox="0 0 266.5 265.8">
<title>play</title>
<path id="Path_27" class="st0" fill="currentColor" d="M133.2-0.6C59.6-0.6,0,59,0,132.6s59.6,133.2,133.2,133.2s133.2-59.6,133.2-133.2
	C266.4,59,206.8-0.6,133.2-0.6z M106.6,192.6V72.7l79.9,60L106.6,192.6z"/>
</symbol>

<symbol id="icon-place" x="0px" y="0px"
	 viewBox="0 0 192 230.1">
<title>place</title>
<path id="Path_24" class="st0" d="M96,0C42.9,0,0,36.1,0,80.6c0,60.5,96,149.7,96,149.7s96-89.3,96-149.7C192,36.1,149,0,96,0z
	 M96,109.4c-18.9,0-34.3-12.9-34.3-28.8S77.1,51.8,96,51.8s34.3,12.9,34.3,28.8S114.9,109.4,96,109.4z"/>
</symbol>

<symbol id="icon-ministry-groups" x='0' y='0' viewBox="0 0 266.5 265.8">
<title>Ministry Groups</title>
<path id="Path_12" class="st0" d="M75.4,265.7H6.9c-5.1,0-6.7-1.6-6.7-6.5c0-42.2-0.4-84.5,0.1-126.7C-0.1,91.8,18.5,53.2,50.6,28.2
	C69.9,12.4,93.4,2.6,118.2,0.2c42.9-5.4,85.8,10.8,114.3,43.3C250.2,62.8,261.6,87,265,113c6.2,38.7-5.5,78.1-31.7,107.2
	c-20.2,24-48.6,39.5-79.7,43.6c-12.6,1.4-25.2,2-37.8,1.8C102.3,266,88.9,265.7,75.4,265.7L75.4,265.7z M9.9,256.3h3.7
	c36.6,0,73.2,0.2,109.8,0.1c8.9,0.2,17.7-0.2,26.6-1.1c23-2.8,44.7-12.3,62.3-27.3c33.5-26.9,50.1-69.5,43.8-112
	c-4.1-36-24.4-68.2-55.1-87.3c-24.7-16.5-54.6-23.3-84-19.1c-26.5,3.3-51.2,15.3-70,34.3c-23.3,22-36.6,52.5-37,84.6
	c-0.7,41.7-0.2,83.5-0.2,125.2C9.7,254.4,9.8,255.2,9.9,256.3L9.9,256.3z"/>
<path id="Path_13" class="st0" d="M133.5,78.8c5.8-5.7,13-9.6,20.9-11.4c23.1-5.3,46.1,9,51.4,32.1c0.8,3.6,1.2,7.3,1.1,11.1
	c-0.3,12.2-5.5,23.7-14.5,31.9c-17.4,17.2-34.6,34.6-52,51.8c-1.2,1.3-2.5,2.4-4,3.3c-3.1,1.7-5.9,1-9-2.1
	c-6.5-6.4-12.9-12.8-19.3-19.2c-12.4-12.4-25.1-24.5-37-37.4c-16.2-17.4-15.2-44.7,2.2-60.9c5.7-5.3,12.8-9,20.4-10.6
	c13.6-3.1,27.8,0.7,38.1,10.1L133.5,78.8z M133.6,189c0.7-1,1.4-2.1,2.2-3c17.2-17.3,34.4-34.5,51.7-51.7
	c6.9-6.5,10.7-15.7,10.3-25.3c0.3-13.6-8.1-25.9-20.9-30.7c-12.4-5.6-27-2.9-36.5,6.9c-7.1,6.6-6.9,6.6-13.9,0.1
	c-9.6-9.8-24.3-12.5-36.8-6.9c-17.3,7.3-25.4,27.2-18.1,44.5c1.8,4.3,4.4,8.1,7.8,11.3c15.2,15.5,30.7,30.7,46,46.1
	C127.9,183,130.4,185.7,133.6,189L133.6,189z"/>
</symbol>

<symbol id="icon-heart" x='0' y='0' viewBox="0 0 400 332.9">
<title>Heart</title>
<path id="Path_14" class="st0" d="M247.5,270.9c-1.5,2.2-3.2,4.2-4.9,6.2c-15,15.5-30.1,30.9-45.2,46.3c-1.8,1.9-3.7,3.7-5.7,5.5
	c-4.8,5.1-12.8,5.3-17.9,0.5c-2.5-2.1-4.8-4.4-7-6.8c-44.7-45.7-89.3-91.4-133.9-137.1c-21.5-21.4-33.2-50.8-32.3-81.2
	C1.5,55.8,35.2,14,82.4,2.7c34.5-8.2,70.9,2.3,95.7,27.7c1.1,1.1,2.2,2.2,3.4,3.2c0.3,0.3,0.7,0.5,1,0.7c4.1-3.7,8-7.6,12.3-11
	c44.8-36.1,110.4-29.1,146.5,15.7c10.7,13.3,18,29.1,21.2,45.9c2.6,11.2,3.1,22.7,1.4,34.1c-0.8,3.8,0.6,7.7,3.7,10
	c27.4,23.1,38.8,60.1,28.9,94.6c-7.6,34.7-35.1,61.5-69.9,68.2c-26.5,6.2-54.4-0.5-75.2-18L247.5,270.9z M350.2,116.2
	c0.2-2.3,0.6-4.4,0.7-6.6c0.2-12.2-1.8-24.4-6.1-35.9c-17-46.7-68.7-70.8-115.4-53.7c-6.9,2.5-13.5,5.9-19.6,10
	c-7.6,5.9-14.8,12.2-21.5,19c-2.5,3.1-7.1,3.6-10.2,1.1c-0.4-0.3-0.8-0.7-1.1-1.1c-2.3-2.2-4.5-4.7-6.8-7
	c-21.8-23.1-54.3-32.8-85.2-25.3c-36.9,8.6-64.6,39.2-69.5,76.8c-4.6,29.9,5.5,60.2,27,81.4l136.8,140.1c1.1,1.1,2.2,2,2.7,2.5
	l55.4-56.9c-27.6-34.2-28.6-82.8-2.3-118C261.9,107,310.5,95.8,350.2,116.2L350.2,116.2z M307.7,120.8c-43.2,0.4-77.9,35.8-77.5,79
	c0,2,0.1,4,0.3,6c3.6,42.8,41.3,74.6,84.1,71c40.8-3.5,72-38,71.2-79c0-0.7,0-1.4-0.1-2.1C383.9,153.9,349.5,121,307.7,120.8
	L307.7,120.8z"/>
</symbol>

<symbol id="icon-heart-two" x="0px" y="0px"
	 viewBox="0 0 192 183.1">
<title>Heart Two</title>
<path id="Path_29" class="st0" d="M139.2,0C122.4,0.2,106.6,7.8,96,20.9C85.4,7.8,69.6,0.2,52.8,0C23.3,0.3-0.3,24.4,0,53.9
	c0,0.3,0,0.7,0,1c0,37.7,32.6,68.5,82,115.1L96,183.1l13.9-13.2c49.4-46.6,82-77.3,82-115c0.9-29.4-22.3-54-51.7-54.9
	C139.9,0,139.5,0,139.2,0z M96.9,155.2l-1,1l-1-1c-45.7-43-75.8-71.5-75.8-100.3c-0.8-18.5,13.5-34.1,32-34.9c0.5,0,1.1,0,1.6,0
	c15.1,0.2,28.6,9.5,34.3,23.6H105c5.6-14.1,19-23.4,34.2-23.6c18.5-0.1,33.5,14.8,33.6,33.3c0,0.5,0,1.1,0,1.6
	C172.7,83.7,142.6,112.2,96.9,155.2z"/>
</symbol>

<symbol id="icon-volunteer" x='0' y='0' viewBox="0 0 333 265.8">
<title>Volunteer</title>
<path id="Path_9" class="st0" d="M191.3,177.1c1.5-2.2,2.8-4.1,4.2-5.9c8.4-11.1,21.5-17.8,35.5-18c19.4-0.3,38.7-0.4,58,0.1
	c21.8,1.3,39.7,17.7,43,39.3c0.9,9.3,1.2,18.8,0.7,28.1c-0.2,8.1-5.8,12.5-14.9,12.5c-25.2,0-50.4,0-75.6,0h-29
	c-0.1,1.5-0.2,2.7-0.2,4c0,5.8,0.1,11.5-0.1,17.2c0.1,6.6-5.1,12.1-11.7,12.4c-11.8,0.4-23.8,0.4-35.6,0.4c-49.3,0-98.5,0-147.8,0
	c-1.7,0-3.4-0.1-5.1-0.3c-6.2,0-11.4-4.9-11.7-11.1c-2.3-17.5-0.8-35.4,4.7-52.2c9.4-27.7,34.7-46.9,63.9-48.6
	c25.7-1.4,51.4-1.4,77.1,0.1c15.7,1.3,30.4,8.1,41.5,19.2L191.3,177.1z M106.5,255.4h86.6c1.8,0.2,3.7,0.1,5.5-0.1
	c1-0.2,2.5-1.6,2.5-2.4c0.2-11.6-0.3-23.2-1.6-34.7c-4.9-27.6-27.5-48.5-55.4-51.3c-24.3-1.1-48.6-1.2-72.9-0.2
	c-28.7,2-52.3,23.2-57.3,51.5c-1.1,10.8-1.6,21.6-1.6,32.4c-0.2,3.7,0.9,4.9,4.7,4.9C46.9,255.3,76.7,255.4,106.5,255.4z
	 M212.5,221.1c0.2,0.2,0.5,0.3,0.8,0.3c35,0.1,70,0.1,105,0.2c2.4,0,2.9-1.2,2.8-3.2c-0.2-7.2,0-14.4-0.5-21.5
	c-1.5-17.8-16.2-31.6-34.1-31.9c-17.9-0.1-35.8-0.2-53.7,0c-13.8-0.3-26.5,7.8-32.1,20.4c-0.5,1.2-0.4,2.6,0.2,3.8
	C207,198.9,210.9,209.7,212.5,221.1L212.5,221.1z"/>
<path id="Path_10" class="st0" d="M36.3,70.8C36.3,31.8,67.9,0.1,106.9,0c0,0,0,0,0.1,0c38.7-0.2,70.2,30.9,70.5,69.6
	c0,0.3,0,0.6,0,0.9c0.3,38.7-30.9,70.3-69.7,70.6c-0.3,0-0.5,0-0.8,0C68.1,141.2,36.5,109.7,36.3,70.8z M165.3,70.5
	c0.1-32.3-26-58.5-58.3-58.6c-0.1,0-0.2,0-0.3,0c-32.3,0-58.4,26.1-58.4,58.4c0,0.2,0,0.3,0,0.5c0,32.2,26.2,58.4,58.4,58.3
	c0.2,0,0.4,0,0.6,0c32.2-0.1,58.2-26.2,58.1-58.4C165.2,70.7,165.2,70.6,165.3,70.5L165.3,70.5z"/>
<path id="Path_11" class="st0" d="M209.5,94.2c-0.1-27.4,22-49.7,49.4-49.8c0.5,0,1,0,1.5,0c27,1,48.3,23.2,48.3,50.2
	c-0.3,27.4-22.6,49.3-50,49.2C231.6,143.5,209.6,121.4,209.5,94.2z M221.5,94.2c-0.1,20.8,16.6,37.7,37.3,37.8c0.1,0,0.3,0,0.4,0
	c21-0.2,37.9-17.5,37.7-38.5c0-0.4,0-0.8,0-1.2c-0.8-20.3-17.5-36.2-37.8-36.2c-20.8,0.1-37.7,17-37.6,37.9
	C221.5,94.1,221.5,94.2,221.5,94.2L221.5,94.2z"/>
</symbol>

<symbol id="icon-heart-moniter" x='0' y='0' viewBox="0 0 333 332.9">
<title>Heart Moniter</title>
<path id="Path_8" class="st0" d="M166,34.4c7.2-6.2,13.7-12.8,20.9-18c54.6-38.8,128-5.5,142.9,64.9c8.3,34.5,0.1,70.9-22.1,98.5
	c-3.2,4.1-6.8,7.9-10.3,11.8c-39.9,44.7-79.9,89.5-119.8,134.2c-8.4,9.4-14.1,9.3-22.5-0.1c-40.3-45.1-80.4-90.5-121-135.3
	c-14.1-14.8-24.4-32.9-30-52.6C-12.6,75.9,23.7,11.2,80.8,1.6c30.9-5.5,62.5,6,82.6,30.2C164.3,32.7,165.3,33.7,166,34.4z
	 M179.1,218.1c0.7-1.6,1.2-2.6,1.6-3.6c10.5-24.9,21-49.7,31.5-74.6c1.3-3,2.9-5.3,6-5.4c3.2-0.1,5,2.3,6.3,5.5
	c4.4,10.6,9.1,21.1,13.5,31.8c0.5,2.3,2.7,3.8,5,3.5c15.7-0.1,31.4-0.3,47.1,0c3.7,0.2,7.3-1.6,9.3-4.7c19-24.4,25.9-56.1,18.9-86.3
	C306.1,25.8,246.6-4.3,199,23.6c-10.4,6.5-19.6,14.7-27.4,24.1c-3.6,4.2-6.6,4.1-10.4,0.1c-2.9-3.1-5.7-6.3-8.7-9.4
	c-17-18.9-42.2-28.1-67.4-24.5c-42.8,5.7-73.8,46.2-73.2,94.5c-0.1,23.5,8.2,46.2,23.4,64.1c1.4,1.5,3.3,2.4,5.3,2.5
	c16.5,0.2,33,0,49.5,0.2c3.9,0.1,5.7-1.1,7.2-5.4c9.1-27.2,18.5-54.3,27.9-81.4c0.5-1.9,1.4-3.7,2.5-5.3c3.7-4.4,8.4-2.2,10.6,4.8
	c10.2,32.5,20.3,64.9,30.5,97.4C172.2,196.1,175.6,206.9,179.1,218.1L179.1,218.1z M218.5,157.1c-0.9,2.1-1.6,3.5-2.2,4.9
	c-10.5,24.9-21,49.7-31.5,74.6c-1.4,3.3-2.9,6.1-6.8,5.9c-3.9-0.3-5-3.4-6.1-6.8c-8.9-28.2-17.7-56.4-26.5-84.7
	c-4.4-14.2-8.9-28.4-13.6-43.3c-0.8,2.2-1.4,3.6-1.9,5c-7.8,22.8-15.7,45.6-23.5,68.4c-2.3,6.7-3.7,7.8-10.1,7.8h-45l115.1,128.9
	l114.8-128.9c-12,0-24.9-0.6-37.7,0.2c-7.6,1.4-15-3.7-16.3-11.4c0-0.1,0-0.2,0-0.3C224.6,170.6,221.7,163.8,218.5,157.1
	L218.5,157.1z"/>
</symbol>

<symbol id="icon-favorite" height="24" viewBox="0 0 24 24" width="24">
<title>favorite</title>
<path d="M19.66 3.99c-2.64-1.8-5.9-.96-7.66 1.1-1.76-2.06-5.02-2.91-7.66-1.1-1.4.96-2.28 2.58-2.34 4.29-.14 3.88 3.3 6.99 8.55 11.76l.1.09c.76.69 1.93.69 2.69-.01l.11-.1c5.25-4.76 8.68-7.87 8.55-11.75-.06-1.7-.94-3.32-2.34-4.28zM12.1 18.55l-.1.1-.1-.1C7.14 14.24 4 11.39 4 8.5 4 6.5 5.5 5 7.5 5c1.54 0 3.04.99 3.57 2.36h1.87C13.46 5.99 14.96 5 16.5 5c2 0 3.5 1.5 3.5 3.5 0 2.89-3.14 5.74-7.9 10.05z"/>
</symbol>

<symbol id="icon-Truth-Connections" x="0px" y="0px"
	 viewBox="0 0 73.9 83.8" >
<title>Truth Connections</title>
<g>
	<path d="M38.9,0c1.4,0.9,2.9,1.7,4.5,2.7c-0.4,0.3-0.6,0.6-1,0.8C31,10,19.5,16.7,8,23.2c-1.3,0.7-1.8,1.5-1.6,2.9
		c0.1,1.3,0,2.7,0,4.4c4.1-2.3,7.9-4.5,11.9-6.9c0,0.9,0,1.5,0,2.1c0,8.4,0,16.8,0,25.3c0,1.2,0.3,2,1.4,2.5
		c1.3,0.6,2.5,1.4,4.1,2.3c0-1,0-1.7,0-2.4c0-10.2,0-20.5,0-30.7c0-1.7,0.4-2.6,1.9-3.5c7.3-4.1,14.5-8.3,21.7-12.5
		c1.2-0.7,2-0.7,3.2,0c6.5,3.8,13.1,7.6,19.7,11.4c2.6,1.5,3.9,3.5,3.8,6.6c-0.1,4.7,0,9.4,0,14.2c-6.1,0-12,0-18.3,0
		c0-2.1-0.1-4.3,0-6.4c0-1.1-0.3-1.7-1.3-2.2c-3.9-2.2-7.8-4.5-12-6.9c2.1-1.2,4-2.4,6-3.4c0.4-0.2,1.1,0.1,1.6,0.3
		c3.6,2.1,7.2,4.2,10.9,6.2c1,0.5,1.3,1.2,1.2,2.2c-0.1,1.2,0,2.4,0,3.8c1.9,0,3.7,0,5.6,0c0-2.6,0-5.1,0-7.7c0-0.4-0.4-1-0.8-1.2
		c-5.7-3.3-11.4-6.6-17.1-9.9c-0.4-0.2-1.3-0.2-1.7,0.1c-5.6,3.2-11.2,6.5-16.8,9.6c-1,0.6-1,1.3-1,2.2c0,11.1,0,22.2,0,33.4
		c0,1.5-0.5,2.2  -1.7,3.1c-2.4,1.7-4.3,1.8-6.7,0c-2.7-1.9-5.6-3.4-8.5-5c-1.1-0.6-1.6-1.3-1.6-2.6c0.1-5.9,0-11.8,0-17.7
		c0-0.6,0-1.2,0-2.2C7.8,37.2,4.1,39.3,0,41.7c0-1.6,0-3,0-4.3c0-4.2,0-8.5,0-12.7c0-3,1.2-5,3.8-6.4c10.5-6,21-12.1,31.6-18.2
		C36.5,0,37.7,0,38.9,0z"/>
	<path d="M67.8,51.2c-2,0-3.7,0-5.6,0c0,1.4,0.1,2.8,0,4.1c-0.1,0.6-0.5,1.4-0.9,1.6c-11.7,6.8-23.4,13.6-35.1,20.3
		c-0.5,0.3-1.5,0.2-2-0.1c-7-3.9-13.9-8-20.8-12C1.1,64,0,62.1,0,59.6c0-3.4-0.1-6.8,0.1-10.2c0-0.7,0.5-1.5,1.1-1.9
		c1.6-1.1,3.3-1.9,5.3-3.1c0,3.8,0.2,7.3-0.1,10.8c-0.3,3.3,0.8,5.2,3.8,6.7c4.7,2.3,9.1,5.1,13.6,7.8c1,0.6,1.7,0.7,2.7,0.1
		c9.3-5.5,18.7-10.9,28.1-16.2c1-0.6,1.4-1.2,1.3-2.4c-0.1-2.1,0-4.2,0-6.4c6.2,0,12.1,0,18.3,0c0,2.3,0,4.5,0,6.8
		c0,2.7,0,5.4,0,8.1c0,2.4-0.9,4.3-3,5.5c-10.4,6-20.7,12-31.1,18c-1.9,1.1-3.9,1-5.9,0c-1.1-0.6-2.1-1.2-3.4-1.9
		c0.6-0.4,1.1-0.7,1.5-1C43.5,73.6,54.8,67,66.1,60.5c1.2-0.7,1.8-1.4,1.7-2.9C67.7,55.6,67.8,53.5,67.8,51.2z"/>
</g>
</symbol>

<symbol id="icon-logo" viewBox="0 0 73.1 84">
<title>logo</title>
<g>
	<polygon points="36.7,14.3 51.7,22.7 63.5,15.4 37,0.2 10,15.5 22.8,22.8 	"/>
	<polygon points="36.8,69.9 21.7,61.4 9.9,68.6 36.6,84 63.6,68.6 50.5,61.4 	"/>
	<path d="M66.9,18.1l-11.7,7l5.5,3.5L61.1,49l-5.4-3.1c-0.7,4.3-2.9,8-6,10.8l16.8,9.6l6.6-3.5V21.6L66.9,18.1z"/>
	<path d="M12,56V35.4l6.6,3.8c0.8-4.3,3.1-8,6.3-10.7L6,17.8l-5.8,3.3v42L6,66.6L18,59.1L12,56z"/>
	<g>
		<path d="M43,37.9c0.1-0.3,0.1-0.6,0.1-0.8c0-2.5-2.5-4.5-5.7-4.7c0-0.7,0-1.4,0-2h-0.7h-0.7c0,0.6,0,1.3,0,2
			c-3.2,0.3-5.6,2.3-5.6,4.7c0,0.3,0,0.5,0.1,0.7c-0.9,0.8-1.6,1.9-2,3c0.4-1,1.1-1.8,2.1-2.5c0.2,0.5,0.5,1,0.9,1.4v-0.4
			c-0.3-0.3-0.6-0.7-0.8-1c0.4-0.3,0.8-0.5,1.3-0.7v12.4h1.4v-5.5h1.4v4.9c0,0.4,0.1,0.8,0.4,1.2c0.3,0.4,0.7,0.7,1,0.8v-6.2
			l-0.7-1.3l0.7-1.3v-3.3c0-0.3-0.1-0.7-0.2-1c-0.2-0.3-0.4-0.6-0.6-0.8c-0.3-0.2-0.5-0.3-0.8-0.3h-1.6c1-0.3,2.1-0.6,3.3-0.6
			c0.1,8.6,0.3,20,0.6,20c0.3,0,0.5-11.4,0.6-20c1.1,0.1,2.2,0.3,3.2,0.6h-2.1c-0.2,0-0.3,0.1-0.5,0.3c-0.1,0.2-0.3,0.5-0.3,0.8
			c-0.1,0.3-0.1,0.7-0.1,1v11.1h0.9V38.5h0.9v11.9h0.5V38.5h0.9v11.9h0.9v-11c0-0.3-0.1-0.7-0.2-1c-0.1-0.3-0.2-0.6-0.4-0.7
			c-0.1-0.1-0.4-0.4-0.4-0.5c0.8,0.3,1.5,0.7,2.2,1.1c-0.2,0.3-0.4,0.6-0.7,0.9v0.4c0.4-0.4,0.6-0.8,0.8-1.3c0.9,0.7,1.6,1.5,2,2.4
			C44.6,39.7,43.9,38.7,43,37.9z M33.4,38.5h1.4v4.6h-1.4V38.5z M30.7,37.5c-0.1-0.2-0.1-0.5-0.1-0.7c0-2.1,2.4-3.7,5.5-4
			c0,0.8,0,1.6,0,2.5C34,35.4,32.1,36.3,30.7,37.5z M42.9,37.6c-1.4-1.3-3.3-2.1-5.5-2.3c0-0.9,0-1.7,0-2.5c3.1,0.2,5.6,1.9,5.6,4
			C43,37.1,43,37.3,42.9,37.6z"/>
		<path d="M48.7,30.6c-3-3.1-7.1-5-11.6-5s-8.6,1.9-11.6,5c-3,3.1-4.8,7.3-4.8,12c0,4.7,1.8,8.9,4.8,12c3,3.1,7.1,5,11.6,5h0
			c4.5,0,8.6-1.9,11.6-5c3-3.1,4.8-7.3,4.8-12C53.5,37.9,51.7,33.7,48.7,30.6z M46.6,52.6c-2.4,2.5-5.8,4.1-9.5,4.1
			c-3.7,0-7.1-1.5-9.5-4.1c-2.4-2.5-3.9-6-3.9-9.8c0-3.9,1.5-7.3,3.9-9.8c2.4-2.5,5.8-4.1,9.5-4.1c3.7,0,7.1,1.6,9.5,4.1
			c2.4,2.5,3.9,6,3.9,9.8C50.5,46.6,49,50.1,46.6,52.6z"/>
	</g>
</g>
</symbol>

<symbol id="triangle" viewBox="0 0 22 22">
<title>Triangle</title>
<path d="M11,0,22,16H0Z" />
</symbol>

</defs>
</svg>